<?xml version="1.0" encoding="UTF-8" standalone="no"?>
<!-- Created with Inkscape (http://www.inkscape.org/) -->

<svg
   width="1024"
   height="1024"
   viewBox="0 0 1024 1024"
   version="1.1"
   id="svg1"
   xml:space="preserve"
   inkscape:version="1.4 (86a8ad7, 2024-10-11)"
   sodipodi:docname="Shlpha.svg"
   inkscape:export-filename="Sylpha512.png"
   inkscape:export-xdpi="48"
   inkscape:export-ydpi="48"
   xmlns:inkscape="http://www.inkscape.org/namespaces/inkscape"
   xmlns:sodipodi="http://sodipodi.sourceforge.net/DTD/sodipodi-0.dtd"
   xmlns="http://www.w3.org/2000/svg"
   xmlns:svg="http://www.w3.org/2000/svg"><sodipodi:namedview
     id="namedview1"
     pagecolor="#ffffff"
     bordercolor="#000000"
     inkscape:showpageshadow="2"
     inkscape:pageopacity="0.0"
     inkscape:pagecheckerboard="true"
     inkscape:deskcolor="#d1d1d1"
     inkscape:document-units="px"
     showguides="true"
     inkscape:zoom="0.35355339"
     inkscape:cx="182.43355"
     inkscape:cy="381.83766"
     inkscape:window-width="1920"
     inkscape:window-height="976"
     inkscape:window-x="-8"
     inkscape:window-y="-8"
     inkscape:window-maximized="1"
     inkscape:current-layer="g84-8-8"
     borderopacity="0.25"
     showgrid="true"><inkscape:grid
       snapvisiblegridlinesonly="false"
       id="grid1"
       units="px"
       originx="0"
       originy="0"
       spacingx="1"
       spacingy="1"
       empcolor="#0099e5"
       empopacity="0.30196078"
       color="#0099e5"
       opacity="0.14901961"
       empspacing="8"
       enabled="true"
       visible="false" /></sodipodi:namedview><defs
     id="defs1"><inkscape:path-effect
       effect="powerclip"
       message=""
       id="path-effect6"
       is_visible="true"
       lpeversion="1"
       inverse="true"
       flatten="false"
       hide_clip="false" /><inkscape:path-effect
       effect="powerclip"
       message=""
       id="path-effect18"
       is_visible="true"
       lpeversion="1"
       inverse="true"
       flatten="false"
       hide_clip="false" /><inkscape:path-effect
       effect="powerclip"
       message=""
       id="path-effect4"
       is_visible="true"
       lpeversion="1"
       inverse="true"
       flatten="false"
       hide_clip="false" /><clipPath
       clipPathUnits="userSpaceOnUse"
       id="clipPath11"><g
         inkscape:label="Clip"
         id="use11" /></clipPath><clipPath
       clipPathUnits="userSpaceOnUse"
       id="clipPath4"><path
         id="path6"
         style="display:none;fill:#ffffff;stroke:none;stroke-width:20.1947;stroke-linecap:square;stroke-miterlimit:90"
         d="m 885.47692,148.20848 -18.01085,-14.12677 3.22873,-22.66124 21.23957,-8.53445 18.01084,14.12679 -3.22873,22.66122 z" /><path
         id="lpe_path-effect6"
         style="display:block;fill:#ffffff;stroke:none;stroke-width:20.1947;stroke-linecap:square;stroke-miterlimit:90"
         class="powerclip"
         d="M 737.72299,77.594191 H 934.48125 V 308.59625 H 737.72299 Z m 147.75393,70.614289 21.23956,-8.53445 3.22873,-22.66122 -18.01084,-14.12679 -21.23957,8.53445 -3.22873,22.66124 z" /></clipPath></defs><g
     id="g84-8-8"
     style="display:inline;fill:#ffffff;fill-opacity:1;stroke:#3061d4;stroke-opacity:1"
     inkscape:label="main"
     transform="matrix(0.903761,0.04201415,-0.04201415,0.903761,56.828675,24.367802)"><g
       id="g36"
       style="fill:#77cdf2;fill-opacity:1;stroke:#77cdf2;stroke-opacity:1"><path
         d="M 391.323,776.701 375.37,704.001 165.433,929.97 292.632,884.167 c 0,0 58.042,-62.613 98.691,-107.466 z"
         style="display:inline;opacity:1;fill:#77cdf2;fill-opacity:1;stroke:#77cdf2;stroke-width:13.1099;stroke-linecap:square;stroke-miterlimit:4.3;stroke-dasharray:none;stroke-opacity:1"
         id="path75-5-5" /><path
         d="m 705.412,370.385 -22.641,-0.261 -101.883,109.181 18.85,67.937 c 20.736,-20.58 47.781,-47.199 47.781,-47.199 24.986,-25.607 33.736,-31.792 62.647,-30.282 z"
         style="display:inline;opacity:1;fill:#77cdf2;fill-opacity:1;stroke:#77cdf2;stroke-width:13.1099;stroke-linecap:square;stroke-miterlimit:4.3;stroke-dasharray:none;stroke-opacity:1"
         id="path56-1-17" /><path
         style="opacity:1;fill:#77cdf2;fill-opacity:1;stroke:#77cdf2;stroke-width:13.1099;stroke-linecap:square;stroke-linejoin:miter;stroke-miterlimit:90;stroke-dasharray:none;stroke-opacity:1"
         d="m 572.084,172.723 c -40.092,24.535 -79.702,74.787 -54.85,174.55 11.098,52.884 75.013,258.44 81.413,307.139 16.047,134.598 -70.74,178.387 -97.947,187.152 24.394,-27.261 44.843,-81.773 11.11,-196.427 C 491.799,573.244 449.763,439.183 444.846,390.181 436.143,337.465 433.745,202.605 572.084,172.723 Z"
         id="path76-7-1" /><path
         style="display:inline;opacity:1;mix-blend-mode:normal;fill:#77cdf2;fill-opacity:1;stroke:#77cdf2;stroke-width:18.3801;stroke-linecap:square;stroke-linejoin:miter;stroke-miterlimit:90;stroke-dasharray:none;stroke-opacity:1"
         d="m 710.983,280.396 -20.067,39.581 -0.391,20.204 27.289,0.396 z"
         id="path79-2-7" /></g><g
       id="g35"
       style="fill:#175ea6;fill-opacity:1;stroke:#175ea6;stroke-opacity:1"><path
         d="M 367.202,666.775 350.85,592.254 C 268.39,682.373 175.822,780.347 175.822,780.347 L 142.37,908.726 Z"
         style="display:inline;opacity:1;fill:#175ea6;fill-opacity:1;stroke:#175ea6;stroke-width:13.1099;stroke-linecap:square;stroke-miterlimit:4.5;stroke-dasharray:none;stroke-opacity:1"
         id="path70-8-8" /><path
         d="m 569.202,315.202 c 3.614,26.155 -11.471,46.691 -17.575,54.162 l 20.419,73.588 89.691,-95.935 -0.53,-26.779 z"
         style="display:inline;opacity:1;fill:#175ea6;fill-opacity:1;stroke:#175ea6;stroke-width:13.1099;stroke-linecap:square;stroke-miterlimit:4.5;stroke-dasharray:none;stroke-opacity:1"
         id="path51-4-4" /><path
         style="opacity:1;fill:#175ea6;fill-opacity:1;stroke:#175ea6;stroke-width:13.1099;stroke-linecap:square;stroke-linejoin:miter;stroke-miterlimit:90;stroke-dasharray:none;stroke-opacity:1"
         d="m 417.372,278.656 c 0,0 -27.356,56.392 3.653,161.776 17.829,54.578 59.703,210.163 59.703,210.163 12.094,42.077 53.384,194.486 -107.749,225.203 51.005,-36.27 57.714,-84.503 43.087,-139.53 C 400.55,671.953 357.611,498.917 353.517,475.851 342.236,412.289 344.37,340.579 417.372,278.656 Z"
         id="path77-1-1" /><path
         style="opacity:1;fill:#175ea6;fill-opacity:1;stroke:#175ea6;stroke-width:13.1099;stroke-linecap:square;stroke-linejoin:miter;stroke-miterlimit:90;stroke-dasharray:none;stroke-opacity:1"
         d="m 631.399,593.672 c 0,0 16.521,-25.294 21.638,-36.568 17.55,36.264 23.634,79.195 -8.545,118.814 4.333,-31.085 -5.629,-57.863 -13.093,-82.246 z"
         id="path78-1-5" /><path
         style="opacity:1;fill:#175ea6;fill-opacity:1;stroke:#175ea6;stroke-width:13.1099;stroke-linecap:square;stroke-linejoin:miter;stroke-miterlimit:90;stroke-dasharray:none;stroke-opacity:1"
         d="m 686.988,258.189 -14.714,36.152 c -17.872,-15.127 -58.893,-38.168 -92.327,-44.496 22.755,-20.656 34.515,-26.35 56.047,-16.47 21.532,9.881 50.994,24.814 50.994,24.814 z"
         id="path81-6-1" /><path
         style="opacity:1;fill:#175ea6;fill-opacity:1;stroke:#175ea6;stroke-width:13.1099;stroke-linecap:square;stroke-linejoin:miter;stroke-miterlimit:90;stroke-dasharray:none;stroke-opacity:1"
         d="m 772.06,458.226 c -10.934,-44.46 -35.916,-93.888 -35.916,-93.888 14.479,-5.118 9.596,-32.162 6.747,-66.065 26.081,59.909 83.09,121.266 29.169,159.953 z"
         id="path82-1-4" /><path
         style="display:inline;opacity:1;mix-blend-mode:normal;fill:#175ea6;fill-opacity:1;stroke:#175ea6;stroke-width:13.1099;stroke-linecap:square;stroke-linejoin:miter;stroke-miterlimit:90;stroke-dasharray:none;stroke-opacity:1"
         d="m 750.473,239.667 20.573,51.068 101.649,-127.223 c 0,0 65.598,2.341 46.871,-70.768 -74.23,-19.9038 -65.817,49.351 -65.817,49.351 z"
         id="path83-4-2"
         clip-path="url(#clipPath4)"
         sodipodi:nodetypes="cccccc"
         transform="translate(4.6217147e-6)"
         inkscape:path-effect="#path-effect6"
         inkscape:original-d="m 750.473,239.667 20.573,51.068 101.649,-127.223 c 0,0 65.598,2.341 46.871,-70.768 -74.23,-19.9038 -65.817,49.351 -65.817,49.351 z" /></g></g></svg>
